<svg width="24" height="20" viewBox="0 0 24 20" fill="none" xmlns="http://www.w3.org/2000/svg">
<path d="M21.5156 5.12512C22.4531 4.422 23.2969 3.57825 23.9531 2.59387C23.1094 2.96887 22.125 3.25012 21.1406 3.34387C22.1719 2.7345 22.9219 1.797 23.2969 0.625122C22.3594 1.18762 21.2812 1.6095 20.2031 1.84387C19.2656 0.859497 18 0.296997 16.5938 0.296997C13.875 0.296997 11.6719 2.50012 11.6719 5.21887C11.6719 5.59387 11.7188 5.96887 11.8125 6.34387C7.73438 6.1095 4.07812 4.14075 1.64062 1.18762C1.21875 1.89075 0.984375 2.7345 0.984375 3.672C0.984375 5.3595 1.82812 6.8595 3.1875 7.75012C2.39062 7.70325 1.59375 7.51575 0.9375 7.14075V7.18762C0.9375 9.57825 2.625 11.547 4.875 12.0157C4.5 12.1095 4.03125 12.2032 3.60938 12.2032C3.28125 12.2032 3 12.1564 2.67188 12.1095C3.28125 14.0782 5.10938 15.4845 7.26562 15.5314C5.57812 16.8439 3.46875 17.6407 1.17188 17.6407C0.75 17.6407 0.375 17.5939 0 17.547C2.15625 18.9532 4.73438 19.7501 7.54688 19.7501C16.5938 19.7501 21.5156 12.297 21.5156 5.78137C21.5156 5.547 21.5156 5.3595 21.5156 5.12512Z" fill="#FFCB47"/>
</svg>
