<svg width="101" height="616" viewBox="0 0 101 616" fill="none" xmlns="http://www.w3.org/2000/svg">
<path fill-rule="evenodd" clip-rule="evenodd" d="M284.914 -349.488C378.816 -409.839 500.328 -326.147 606.445 -291.44C695.841 -262.202 781.671 -228.371 850.687 -164.445C922.505 -97.9233 976.461 -16.526 1004.51 77.2671C1036.23 183.339 1064.83 299.816 1019.74 400.899C973.65 504.226 876.3 590.001 765.538 612.99C662.06 634.466 576.585 531.577 472.273 514.525C367.351 497.373 251.989 569.47 161.155 514.189C65.3803 455.901 -6.1279 339.625 1.04142 227.736C8.06001 118.198 147.437 70.9165 195.868 -27.5613C246.231 -129.969 188.927 -287.797 284.914 -349.488Z" fill="#FFCB47"/>
</svg>
